<svg width="150" height="112" viewBox="0 0 150 112" fill="none" xmlns="http://www.w3.org/2000/svg">
<path d="M11.6126 95.0886H4.45013L15.4751 73.8833H23.3876L33.9251 95.0886H25.9751L24.3626 91.2806H13.3001L11.6126 95.0886ZM22.4501 86.6513L19.0376 78.9233L15.4376 86.6513H22.4501Z" fill="#FF6600"/>
<path d="M35.55 73.8826H42.4125V95.0879H35.55V73.8826Z" fill="#FF6600"/>
<path d="M45.9 73.8826H52.7625V78.2132H45.9V73.8826ZM45.9 80.3039H52.7625V95.0879H45.9V80.3039Z" fill="#FF6600"/>
<path d="M56.5092 73.8662H63.3717V82.4155C64.1967 81.5942 65.0967 80.9595 66.1092 80.5489C67.1217 80.1382 68.2092 79.9142 69.4092 79.9142C71.7342 79.9142 73.6092 80.6609 75.0342 82.1542C76.4592 83.6475 77.1717 85.6262 77.1717 88.0529C77.1717 90.2929 76.4592 92.0849 75.0717 93.4289C73.6842 94.7729 71.8092 95.4449 69.4842 95.4449C68.2092 95.4449 67.0467 95.2209 65.9967 94.7355C64.9467 94.2875 64.0842 93.5782 63.3342 92.6822C63.3342 93.1675 63.3342 93.6155 63.2592 94.0262C63.2217 94.4369 63.1467 94.7729 63.0717 95.0715H56.2092C56.2842 94.8102 56.3592 94.4369 56.3967 94.0262C56.4342 93.6155 56.4717 93.1302 56.4717 92.6075V73.8662H56.5092ZM70.2717 87.7542C70.2717 86.4475 69.9717 85.4395 69.3342 84.6555C68.7342 83.9089 67.8717 83.5355 66.8217 83.5355C65.6967 83.5355 64.8342 83.9089 64.1967 84.6182C63.5967 85.3275 63.2967 86.4102 63.2967 87.7915C63.2967 89.0982 63.5967 90.1062 64.1967 90.8155C64.7967 91.5249 65.6592 91.8982 66.7467 91.8982C67.8342 91.8982 68.6592 91.5249 69.2967 90.7782C69.9342 90.0315 70.2717 89.0235 70.2717 87.7542Z" fill="#FF6600"/>
<path d="M92.8464 92.7118C92.2089 93.5704 91.3464 94.2051 90.2964 94.6158C89.2464 95.0264 88.0089 95.2504 86.5089 95.2504C84.4089 95.2504 82.7589 94.8771 81.6339 94.1304C80.5089 93.3838 79.9464 92.3384 79.9464 90.9571C79.9464 89.0904 80.9214 87.7464 82.8714 86.9251C84.8214 86.1038 88.1214 85.6558 92.7339 85.6184C92.7339 85.5811 92.7339 85.5438 92.7339 85.4691C92.7339 85.3945 92.7339 85.3198 92.7339 85.2825C92.7339 84.5358 92.5089 83.9758 92.0589 83.6025C91.6089 83.2291 90.9339 83.0425 89.9964 83.0425C89.1714 83.0425 88.5339 83.1918 88.0839 83.4531C87.6339 83.7144 87.3714 84.1251 87.2964 84.6851H80.9589C80.9964 83.0425 81.7839 81.8105 83.2839 81.0265C84.8214 80.2425 87.1464 79.8318 90.2964 79.8318C93.2964 79.8318 95.5464 80.2798 97.0464 81.2505C98.5089 82.1838 99.2589 83.6024 99.2589 85.5064V93.0478C99.2589 93.4958 99.2964 93.9064 99.3339 94.1678C99.3714 94.4664 99.4464 94.7278 99.5589 94.9518H93.1839C93.0714 94.6158 92.9589 94.2424 92.9214 93.8691C92.8839 93.4958 92.8464 93.1224 92.8464 92.7118ZM92.6964 88.4931C90.4839 88.4931 88.9464 88.6425 88.1589 88.9411C87.3714 89.2398 86.9589 89.7251 86.9589 90.4344C86.9589 90.9198 87.1464 91.2931 87.5589 91.5918C87.9339 91.8531 88.4964 92.0024 89.2089 92.0024C90.3714 92.0024 91.2339 91.7411 91.8339 91.1811C92.4339 90.6584 92.6964 89.8371 92.6964 88.7171V88.4931Z" fill="#FF6600"/>
<path d="M102.4 73.8662H109.262V82.4155C110.087 81.5942 110.987 80.9595 112 80.5489C113.012 80.1382 114.1 79.9142 115.3 79.9142C117.625 79.9142 119.5 80.6609 120.925 82.1542C122.35 83.6475 123.062 85.6262 123.062 88.0529C123.062 90.2929 122.35 92.0849 120.962 93.4289C119.575 94.7729 117.7 95.4449 115.375 95.4449C114.1 95.4449 112.937 95.2209 111.887 94.7355C110.837 94.2875 109.975 93.5782 109.225 92.6822C109.225 93.1675 109.187 93.6155 109.15 94.0262C109.112 94.4369 109.037 94.7729 108.962 95.0715H102.1C102.175 94.8102 102.25 94.4369 102.287 94.0262C102.325 93.6155 102.362 93.1302 102.362 92.6075V73.8662H102.4ZM116.162 87.7542C116.162 86.4475 115.862 85.4395 115.225 84.6555C114.625 83.9089 113.762 83.5355 112.712 83.5355C111.587 83.5355 110.725 83.9089 110.125 84.6182C109.525 85.3275 109.225 86.4102 109.225 87.7915C109.225 89.0982 109.525 90.1062 110.125 90.8155C110.725 91.5249 111.587 91.8982 112.675 91.8982C113.725 91.8982 114.587 91.5249 115.225 90.7782C115.862 90.0315 116.162 89.0235 116.162 87.7542Z" fill="#FF6600"/>
<path d="M138.737 92.7118C138.1 93.5704 137.237 94.2051 136.187 94.6158C135.137 95.0264 133.9 95.2504 132.4 95.2504C130.3 95.2504 128.65 94.8771 127.525 94.1304C126.4 93.3838 125.837 92.3384 125.837 90.9571C125.837 89.0904 126.812 87.7464 128.762 86.9251C130.712 86.1038 134.012 85.6558 138.625 85.6184C138.625 85.5811 138.625 85.5438 138.625 85.4691C138.625 85.3945 138.625 85.3198 138.625 85.2825C138.625 84.5358 138.4 83.9758 137.95 83.6025C137.5 83.2291 136.825 83.0425 135.887 83.0425C135.062 83.0425 134.425 83.1918 133.975 83.4531C133.525 83.7144 133.262 84.1251 133.187 84.6851H126.85C126.887 83.0425 127.675 81.8105 129.175 81.0265C130.712 80.2425 133.037 79.8318 136.187 79.8318C139.187 79.8318 141.437 80.2798 142.937 81.2505C144.4 82.1838 145.15 83.6024 145.15 85.5064V93.0478C145.15 93.4958 145.187 93.9064 145.225 94.1678C145.262 94.4664 145.337 94.7278 145.45 94.9518H139.075C138.962 94.6158 138.85 94.2424 138.812 93.8691C138.775 93.4958 138.737 93.1224 138.737 92.7118ZM138.587 88.4931C136.375 88.4931 134.875 88.6425 134.05 88.9411C133.262 89.2398 132.85 89.7251 132.85 90.4344C132.85 90.9198 133.037 91.2931 133.45 91.5918C133.825 91.8531 134.387 92.0024 135.1 92.0024C136.262 92.0024 137.125 91.7411 137.725 91.1811C138.325 90.6584 138.587 89.8371 138.587 88.7171V88.4931Z" fill="#FF6600"/>
<path d="M45.1904 57.5344C44.8154 57.4971 44.2154 57.1611 43.8029 56.8251C39.7904 52.9051 44.9279 48.3878 50.9279 45.7744V38.3078C52.3154 39.2038 53.1029 39.2411 53.1404 39.3531L57.7154 34.8358L56.1779 30.9531C69.5654 26.3611 74.9279 24.6064 85.8029 22.7771L83.8529 20.9478L87.0404 19.1558C94.3529 21.5451 101.253 22.1798 100.053 28.3024C100.353 24.1584 95.1779 22.5904 87.3029 20.3878L85.7654 21.3211L88.6904 23.7104C75.6779 25.9504 67.6529 28.4891 58.1279 31.7744L59.4404 35.1344L54.6404 39.8758C55.4279 40.0998 63.7904 42.8624 72.4529 36.8518C72.4529 36.8518 72.6404 36.7398 72.6404 36.6651C72.3779 36.2544 71.7779 35.7691 71.0654 35.1344C73.6154 35.3211 75.2654 37.5238 74.9654 39.8384H73.7654C73.8404 39.0918 73.6904 38.2704 73.4279 37.7478C66.7154 42.6384 58.9154 43.3478 52.2779 41.0331V46.8198C49.0529 47.9398 43.3154 51.4864 43.3529 54.9211C43.5779 56.5264 44.4029 57.1238 45.1904 57.5344Z" fill="black"/>
<path d="M72.6451 55.6217C65.4451 59.2431 58.5451 62.1551 47.9326 62.5657C34.0951 62.2671 31.9576 53.1204 38.4826 43.5631C44.6701 33.9311 54.4951 25.1951 70.0951 19.7444C74.6326 18.1391 81.2701 16.3471 87.6826 16.2351C96.9076 16.1604 105.87 18.9977 105.27 27.8084C104.933 34.5657 95.1451 44.0484 90.0076 50.8804C87.7951 53.8671 87.4201 55.8084 91.2076 55.6217C104.895 54.7257 117.27 50.0217 128.783 45.1311C120.983 50.3951 80.7451 70.2191 80.5951 56.7044C80.6326 54.9871 81.4201 53.1577 82.7326 51.2164C84.0076 49.2751 85.7701 47.2591 87.6076 45.2057C90.3451 42.1071 97.1701 34.6404 99.4576 30.1604C103.32 21.7977 94.6951 21.3871 87.2326 18.7737L84.0451 20.5657L85.9951 22.3951C75.1201 24.1871 69.7576 25.9791 56.3701 30.5711L57.9076 34.4537L53.3701 38.9337C53.2576 38.8217 52.5826 38.7844 51.1576 37.8884V45.3551C45.1951 47.9684 40.0201 52.4857 44.0326 56.4057C44.4451 56.7417 45.0451 57.0777 45.4201 57.1151C52.7701 61.2217 72.6826 55.6217 72.6451 55.6217Z" fill="#FF6600"/>
<path d="M115.672 60.4726H116.61C116.797 60.4726 116.947 60.4353 117.06 60.3979C117.172 60.3606 117.247 60.2859 117.322 60.2113C117.397 60.0993 117.397 60.0246 117.397 59.9126C117.397 59.7633 117.322 59.6139 117.21 59.5393C117.097 59.4273 116.91 59.3899 116.685 59.3899H115.672V60.4726ZM115.26 62.3393V59.0166H116.76C117.06 59.0166 117.285 59.0539 117.435 59.0913C117.585 59.1659 117.697 59.2406 117.81 59.4273C117.922 59.5766 117.96 59.7259 117.96 59.9126C117.96 60.1366 117.885 60.3606 117.735 60.5099C117.585 60.6593 117.36 60.7713 117.022 60.8086C117.135 60.8459 117.247 60.9206 117.285 60.9579C117.397 61.0699 117.547 61.2193 117.66 61.4059L118.26 62.3019H117.697L117.247 61.6299C117.135 61.4059 117.022 61.2566 116.91 61.1446C116.835 61.0326 116.76 60.9579 116.685 60.9206C116.61 60.8833 116.572 60.8459 116.497 60.8459C116.46 60.8459 116.385 60.8459 116.235 60.8459H115.672V62.3393H115.26Z" fill="#FF6600"/>
<path d="M116.593 63.8779C118.355 63.8779 119.78 62.4593 119.78 60.7046C119.78 58.9499 118.355 57.5312 116.593 57.5312C114.83 57.5312 113.405 58.9499 113.405 60.7046C113.405 62.4593 114.83 63.8779 116.593 63.8779ZM113.893 60.7046C113.893 59.2113 115.093 58.0166 116.593 58.0166C118.093 58.0166 119.293 59.2113 119.293 60.7046C119.293 62.1606 118.093 63.3926 116.593 63.3926C115.093 63.3926 113.893 62.1979 113.893 60.7046Z" fill="#FF6600"/>
</svg>
