<svg width="225" height="60" viewBox="0 0 225 60" fill="none" xmlns="http://www.w3.org/2000/svg">
<g clip-path="url(#clip0_5_599)">
<path d="M25.02 0L19.1475 17.7172H0L15.4575 28.6745L9.6525 46.4801L25.02 35.5228L40.455 46.4801L34.5825 28.6745L49.95 17.7172H30.8925L25.02 0Z" fill="#E22130"/>
<path d="M103.68 16.1488C102.51 15 101.25 14.1606 99.6525 13.6746C98.145 13.1002 96.3675 12.8572 94.455 12.8572C92.52 12.8572 90.765 13.1885 88.9875 13.9397C87.2325 14.6908 85.7925 15.7511 84.6225 16.8999L84.5325 16.9883C83.9475 17.651 83.43 18.3137 83.025 19.0427C82.6875 19.7055 82.35 20.2799 82.1925 20.7659C82.035 20.4345 81.765 19.8601 81.4275 19.2857C80.8425 18.2033 80.325 17.3859 79.92 17.0545C78.75 15.729 77.4 14.8233 75.645 14.0943C73.89 13.3432 72.045 13.0118 69.93 13.0118C68.58 13.0118 66.645 13.1665 64.5525 14.1606C62.1225 15.3093 60.0975 17.1208 58.68 19.7718V13.8513H56.745V46.8999H58.68V28.1002C58.68 25.9573 58.9275 24.1458 59.445 22.489C59.94 20.8321 60.705 19.595 61.7175 18.3579C62.55 17.2092 63.81 16.3034 65.25 15.729C66.6675 15.0663 68.1975 14.7349 69.7725 14.8233C71.7075 14.9117 73.3725 15.243 74.9025 15.9058C76.32 16.5685 77.5125 17.5626 78.5025 18.7114C79.335 19.8601 79.92 20.8542 80.2575 22.003C80.7525 23.3947 80.9325 25.0516 80.9325 27.3712V46.8336H82.8675V28.2106C82.8675 25.9131 82.9575 24.0133 83.3625 22.4448C83.79 20.9647 84.375 19.8159 85.545 18.3137C86.5575 16.9883 87.8175 16.0825 89.5725 15.4198C90.99 14.9338 92.5875 14.6024 94.095 14.6024C95.7825 14.6024 97.2 14.8454 98.55 15.3535C99.9 15.8616 100.89 16.5906 101.835 17.4964C103.005 18.6451 103.86 20.0589 104.355 21.8704C104.94 23.6819 105.188 25.7364 105.188 28.299V46.8336H107.123L107.46 28.2106C107.46 25.4934 107.123 23.1075 106.448 21.1193C105.863 19.1311 105.008 17.3859 103.68 16.1488Z" fill="#231F20"/>
<path d="M141.863 22.2461C140.85 19.9486 138.915 17.629 136.395 15.9722C133.448 13.984 129.938 13.012 126.248 13.012C119.543 13.012 115.425 15.9722 113.063 18.5348C110.205 21.6718 108.54 25.9575 108.54 30.3315C108.54 34.7056 110.228 38.9913 113.063 42.1283C115.335 44.6025 119.52 47.6511 126.248 47.6511C129.69 47.6511 132.795 46.8338 135.563 45.2653C138.173 43.6084 140.265 41.4656 141.863 38.5937V46.9221H143.798V13.9398H141.863V22.2461ZM140.783 24.146C141.12 25.0517 141.458 25.9575 141.615 26.8632C141.863 27.8573 141.953 28.9177 141.953 29.8234C142.043 30.9059 141.953 31.8779 141.795 32.7837C141.638 33.8662 141.368 34.7719 141.03 35.5893C139.928 38.6379 138.015 41.2667 135.405 43.012C132.885 44.8234 129.69 45.7292 126.428 45.7292C121.568 45.7292 117.54 44.0061 114.593 40.8691C112.073 38.0635 110.475 34.1975 110.475 30.1548C110.475 25.7807 112.163 21.9148 114.998 19.0208C117.945 16.2152 121.883 14.5804 126.248 14.5804C129.443 14.5804 132.548 15.4862 135.068 17.0547C137.678 18.9545 139.68 21.3404 140.783 24.146Z" fill="#231F20"/>
<path d="M151.2 18.866C152.955 17.2975 154.733 16.3034 156.488 15.5744C158.243 14.9117 160.178 14.4919 162.54 14.4919H162.698C165.555 14.4919 168.48 15.3093 170.933 16.7231C173.79 18.5346 175.973 21.0089 177.143 24.1458L177.233 24.3005H179.415L179.258 23.9691C177.908 20.2578 175.388 17.2092 172.035 15.243C169.268 13.5862 165.915 12.7688 162.63 12.7688C157.77 12.7688 153.315 14.5803 150.03 17.8056C146.745 21.0309 144.9 25.4713 144.9 30.243C144.9 34.6834 146.655 38.9691 149.513 42.1061C152.798 45.6407 157.41 47.5405 162.945 47.5405C166.545 47.5405 170.078 46.458 172.935 44.4919C175.793 42.5258 177.975 39.7865 179.235 36.4949L179.393 36.1635H177.21L177.12 36.3181C176.288 38.704 174.51 41.0236 172.17 42.6583C169.493 44.7128 166.05 45.7069 162.518 45.7069C160.425 45.7069 158.4 45.2872 156.465 44.5582C154.53 43.7408 152.933 42.6583 151.425 41.3329C149.918 39.8527 148.815 38.1959 147.983 36.2298C147.15 34.3299 146.723 32.1871 146.723 30.0442C146.723 27.9013 147.218 25.6701 147.983 23.704C148.68 21.8483 149.85 20.1915 151.2 18.866ZM173.858 18.7114C175.365 20.1031 176.625 21.9367 177.458 24.0795C176.625 22.003 175.365 20.2798 173.858 18.7114Z" fill="#231F20"/>
<path d="M206.595 13.7629H204.413L204.322 13.9176C204.322 14.0722 201.038 21.5833 197.775 29.1606L191.318 44.0722L185.198 29.1606C181.26 19.2637 178.988 13.9839 178.988 13.9176L178.898 13.7629H176.715L190.148 46.6569L184.095 60H186.278L186.368 59.8454C186.368 59.8454 186.525 59.4257 186.795 58.7629C187.808 56.4654 190.575 50.1031 193.77 42.9456C194.603 41.0457 195.458 39.0796 196.38 37.0914L204.278 19.1974C205.628 16.1488 206.46 14.1606 206.46 14.0943L206.595 13.7629Z" fill="#231F20"/>
<path d="M221.715 30.8174C219.87 29.492 217.598 28.8292 215.325 28.3432L215.078 28.2548C212.468 27.5037 210.803 26.7747 209.7 25.9574C208.44 24.8749 207.765 23.5715 207.675 21.5833C207.675 20.6775 207.765 19.7718 208.103 19.0207C208.35 18.2033 208.868 17.5406 209.453 16.8778C210.128 16.1267 210.96 15.6407 211.793 15.221C212.805 14.8012 213.818 14.6466 214.898 14.6466H215.055C216.068 14.6466 216.99 14.8012 217.733 15.1326C218.565 15.464 219.33 15.95 219.915 16.5244C220.5 17.0987 221.018 17.8498 221.333 18.6672C221.67 19.4846 221.828 20.3903 221.828 21.3845V21.6275H223.762V21.4286C223.762 19.0428 222.84 16.8999 221.333 15.3314C219.735 13.7629 217.553 13.0339 214.875 13.0339C212.535 13.0339 210.263 13.785 208.575 15.0884C206.64 16.6569 205.718 18.8881 205.718 21.6054C205.808 24.168 206.73 26.0457 208.395 27.4596C210.15 28.8513 212.513 29.6024 214.853 30.1768C217.71 30.8395 219.713 31.7453 220.973 32.894C222.322 34.2195 222.907 35.788 222.997 37.9971V38.2401C222.997 39.3226 222.84 40.383 222.413 41.2004C221.985 42.1061 221.49 42.9235 220.725 43.5862C220.05 44.3373 219.128 44.9117 218.205 45.3093C217.193 45.7291 216.113 45.8837 215.01 45.8837C212.58 45.8837 210.398 45.1326 208.89 43.7409C207.383 42.2607 206.618 40.2725 206.55 37.8867V37.6437L204.615 37.732V38.1518C204.615 38.2401 204.615 38.3064 204.615 38.3948C204.615 39.5435 204.863 40.626 205.29 41.6864C205.718 42.7688 206.303 43.7409 207.135 44.492C208.148 45.4861 209.318 46.3034 210.668 46.7895C212.018 47.2755 213.435 47.6068 215.033 47.6068C216.45 47.6068 217.8 47.2755 219.06 46.7895C220.32 46.2151 221.4 45.464 222.345 44.5582C223.177 43.6525 223.942 42.57 224.37 41.4213C224.865 40.2725 225.045 39.0354 224.955 37.7099C224.82 34.5288 223.717 32.3196 221.715 30.8174Z" fill="#231F20"/>
<path d="M205.492 11.2887L207.765 9.72025L210.037 11.2887L209.115 8.65987L211.455 7.00302H208.687L207.765 4.44043L206.932 7.00302H204.165L206.347 8.65987L205.492 11.2887Z" fill="#231F20"/>
</g>
<defs>
<clipPath id="clip0_5_599">
<rect width="225" height="60" fill="white"/>
</clipPath>
</defs>
</svg>
